<?xml version="1.0" encoding="UTF-8"?>
<svg width="240px" height="52px" viewBox="0 0 240 52" version="1.1" xmlns="http://www.w3.org/2000/svg" xmlns:xlink="http://www.w3.org/1999/xlink">
    <!-- Generator: Sketch 49.3 (51167) - http://www.bohemiancoding.com/sketch -->
    <title>st-logo</title>
    <desc>Created with Sketch.</desc>
    <defs></defs>
    <g id="Page-1" stroke="none" stroke-width="1" fill="none" fill-rule="evenodd">
        <g id="st-logo" fill="#B5226E" fill-rule="nonzero">
            <path d="M63.3230474,36.1487518 L63.3230474,31.069868 L65.9236868,31.069868 L65.9236868,31.5594482 C66.0153979,32.2529066 66.3904245,32.82397 67.0484258,33.2726382 C67.7057453,33.7213065 68.4837552,33.9459815 69.3810917,33.9459815 C70.3193402,33.9459815 71.0687117,33.7826745 71.6298879,33.4564013 C72.1907232,33.1301281 72.4713114,32.6760049 72.4713114,32.0947136 C72.4713114,31.5338782 72.2391358,31.121008 71.7754665,30.8554209 C71.3111153,30.5905157 70.3905953,30.3464075 69.0132246,30.1234371 C66.9734205,29.7787535 65.5176352,29.2213275 64.6458687,28.4508181 C63.7741021,27.6803088 63.3383894,26.6827379 63.3383894,25.4584463 C63.3383894,24.2232449 63.8126276,23.1902169 64.7611041,22.3583395 C65.7095807,21.5264622 66.9591013,21.1105236 68.5089842,21.1105236 C69.906129,21.1105236 71.1099646,21.3982713 72.1194682,21.9737668 L72.1194682,21.3403126 L74.7051065,21.3403126 L74.7051065,26.2511163 L72.1194682,26.2511163 L72.1194682,25.3483248 C71.3339578,24.1346022 70.1918311,23.5277409 68.6927473,23.5277409 C67.9276929,23.5277409 67.297989,23.6934345 66.8032948,24.0248217 C66.3086005,24.3565498 66.0614239,24.7973766 66.0614239,25.3483248 C66.0614239,25.9091602 66.2881445,26.2944148 66.7422677,26.503066 C67.19605,26.7123991 68.172824,26.9336648 69.6719078,27.1668632 C71.1103055,27.3905155 72.1961782,27.6526932 72.9305486,27.9537373 C73.664578,28.2544405 74.2741668,28.7545897 74.7586331,29.4531621 C75.2424175,30.1524164 75.4848211,30.9655424 75.4848211,31.8942448 C75.4848211,33.2712745 74.9573972,34.3656705 73.9015267,35.1767509 C72.846338,35.9878313 71.4768089,36.393201 69.7943029,36.393201 C68.2130541,36.393201 66.9229624,36.0341982 65.9236868,35.3161926 L65.9236868,36.1487518 L63.3230474,36.1487518 Z" id="Fill-1"></path>
            <path d="M80.4990639,28.7366226 C80.4990639,30.1985447 80.9555736,31.3962435 81.8682522,32.3307417 C82.7809307,33.2645581 83.8951008,33.7316368 85.2107625,33.7316368 C86.5468802,33.7316368 87.6661644,33.2594441 88.5686149,32.3150588 C89.4714063,31.3706735 89.923143,30.1780887 89.923143,28.7366226 C89.923143,27.2852694 89.4639058,26.0899571 88.5461133,25.1506858 C87.6279798,24.2114145 86.5161962,23.7419493 85.2107625,23.7419493 C83.8443017,23.7419493 82.7171762,24.2219834 81.8300676,25.1813698 C80.9426182,26.1410971 80.4990639,27.3261814 80.4990639,28.7366226 M77.4241862,28.744464 C77.4241862,26.4602107 78.1786717,24.5861002 79.6886654,23.1224734 C81.1976363,21.6588466 83.0386763,20.9268628 85.2107625,20.9268628 C87.3422777,20.9268628 89.1734306,21.6486186 90.7028575,23.0914485 C92.2329663,24.5349602 92.9976798,26.4189578 92.9976798,28.744464 C92.9976798,31.0696293 92.2350119,32.9563544 90.710699,34.4046391 C89.1857042,35.8529239 87.3528466,36.5770663 85.2107625,36.5770663 C83.0079923,36.5770663 81.1594518,35.8426959 79.6654819,34.3742961 C78.1711711,32.9055553 77.4241862,31.0290583 77.4241862,28.744464" id="Fill-3"></path>
            <path d="M109.022603,21.3402785 L109.022603,26.9390857 L106.421964,26.9390857 C106.289341,25.8682141 105.853287,25.0475876 105.114143,24.4765242 C104.374318,23.90512 103.515507,23.6194178 102.536347,23.6194178 C101.230572,23.6194178 100.170269,24.0810416 99.3544158,25.0039481 C98.5382214,25.9271955 98.1304651,27.1381907 98.1304651,28.6372746 C98.1304651,30.0344194 98.5177654,31.2658705 99.2927069,32.3316281 C100.067989,33.3973857 101.190001,33.9306054 102.658742,33.9306054 C104.698205,33.9306054 106.177174,32.9616729 107.095307,31.0238079 L109.497182,32.1560475 C108.170952,35.1030752 105.850559,36.57693 102.536347,36.57693 C100.190384,36.57693 98.3445713,35.7764185 96.9982255,34.1750546 C95.6522208,32.5740317 94.9792184,30.7282187 94.9792184,28.6372746 C94.9792184,26.4041613 95.7132478,24.5600529 97.1819886,23.106995 C98.6507294,21.6535963 100.343122,20.9270673 102.260872,20.9270673 C103.902807,20.9270673 105.289724,21.4115336 106.421964,22.3804661 L106.421964,21.3402785 L109.022603,21.3402785 Z" id="Fill-5"></path>
            <path d="M113.890381,16.3072162 C113.890381,15.8380919 114.056075,15.4299947 114.387803,15.0832655 C114.718849,14.7365363 115.139902,14.5630013 115.649938,14.5630013 C116.128949,14.5630013 116.54216,14.7310814 116.88889,15.0679235 C117.235619,15.4047656 117.409154,15.8176359 117.409154,16.3072162 C117.409154,16.7964555 117.235619,17.2123942 116.88889,17.5540094 C116.54216,17.8959655 116.128949,18.0664321 115.649938,18.0664321 C115.160358,18.0664321 114.74476,17.893238 114.402804,17.5461679 C114.061189,17.1997796 113.890381,16.7865684 113.890381,16.3072162 Z M114.303592,33.5632157 L114.303592,23.9253714 L112.00877,23.9253714 L112.00877,21.3404149 L117.210049,21.3404149 L117.210049,33.5632157 L119.50453,33.5632157 L119.50453,36.1488541 L112.00877,36.1488541 L112.00877,33.5632157 L114.303592,33.5632157 Z" id="Fill-7"></path>
            <path d="M131.150642,30.641383 C129.896008,29.6622224 128.626372,29.1726422 127.341053,29.1726422 C126.535428,29.1726422 125.862425,29.4072043 125.322046,29.8763286 C124.781326,30.3454528 124.510966,30.9526551 124.510966,31.6969126 C124.510966,32.3903709 124.748255,32.9716623 125.222493,33.4407865 C125.696732,33.9099108 126.341778,34.1444729 127.157972,34.1444729 C128.565345,34.1444729 129.896008,33.5532945 131.150642,32.3699149 L131.150642,30.641383 Z M136.520001,33.5631816 L136.520001,36.14882 L131.441458,36.14882 L131.441458,34.343578 C130.033745,35.7103797 128.463065,36.3932692 126.729419,36.3932692 C125.383073,36.3932692 124.212649,35.9548289 123.218487,35.0779484 C122.223985,34.2007269 121.726904,33.0790563 121.726904,31.7122546 C121.726904,30.3355658 122.254669,29.1934391 123.310198,28.2855337 C124.365728,27.3779691 125.638091,26.9238459 127.127288,26.9238459 C128.513864,26.9238459 129.855437,27.3421711 131.150642,28.1784806 L131.150642,26.7097398 C131.150642,25.9549134 131.079387,25.3736221 130.936195,24.9658658 C130.793344,24.5577686 130.45957,24.1909244 129.934192,23.8643102 C129.409155,23.5380371 128.722856,23.37473 127.876659,23.37473 C126.418147,23.37473 125.362617,23.9560213 124.710071,25.118604 L121.925668,24.3842336 C123.159506,22.0798652 125.291362,20.9268287 128.320555,20.9268287 C129.431656,20.9268287 130.393088,21.0775212 131.204169,21.3785653 C132.014908,21.6789276 132.619383,22.0669097 133.016911,22.541148 C133.41444,23.0153863 133.682413,23.5278091 133.82015,24.0784164 C133.957546,24.6293646 134.026415,25.5065861 134.026415,26.7097398 L134.026415,33.5631816 L136.520001,33.5631816 Z" id="Fill-9"></path>
            <polygon id="Fill-11" points="140.959601 33.5632839 140.959601 17.454525 138.328618 17.454525 138.328618 14.8688866 143.866058 14.8688866 143.866058 33.5632839 146.130537 33.5632839 146.130537 36.1485813 138.328618 36.1485813 138.328618 33.5632839"></polygon>
            <path d="M147.759141,24.7517938 L147.759141,21.3404149 L149.640752,21.3404149 L149.640752,19.0145677 L154.367793,15.6185308 L154.367793,21.3404149 L157.091168,21.3404149 L157.091168,24.7517938 L154.367793,24.7517938 L154.367793,31.1739549 C154.367793,31.756269 154.441775,32.1469786 154.58974,32.3464246 C154.737365,32.5462116 155.076593,32.6450822 155.607085,32.6450822 C156.045526,32.6450822 156.54022,32.5434841 157.091168,32.339265 L157.091168,35.6129069 C155.877105,36.1130561 154.688952,36.3626193 153.52671,36.3626193 C150.935617,36.3626193 149.640752,35.0762778 149.640752,32.5025721 L149.640752,24.7517938 L147.759141,24.7517938 Z" id="Fill-13"></path>
            <path d="M168.969422,30.6719988 C167.826954,29.9584253 166.913935,29.6011272 166.231045,29.6011272 C165.690325,29.6011272 165.198358,29.7593203 164.754804,30.0753655 C164.31125,30.3914107 164.089302,30.8503069 164.089302,31.4520542 C164.089302,31.9927745 164.267269,32.4567848 164.624567,32.844426 C164.981525,33.2320672 165.440421,33.4257173 166.001597,33.4257173 C166.878478,33.4257173 167.867866,32.910908 168.969422,31.8806074 L168.969422,30.6719988 Z M176.082996,32.7373729 L176.082996,36.1487518 L168.969422,36.1487518 L168.969422,34.9783277 C167.694331,35.9015751 166.347985,36.362517 164.930726,36.362517 C163.461985,36.362517 162.194736,35.9448737 161.128978,35.1085642 C160.06322,34.2725957 159.530342,33.1502432 159.530342,31.7425294 C159.530342,30.3252696 160.090836,29.1374579 161.213189,28.1784124 C162.3352,27.2197079 163.783485,26.7403556 165.558043,26.7403556 C166.547091,26.7403556 167.684103,26.9906007 168.969422,27.490068 L168.969422,26.5872766 C168.969422,25.8327911 168.714404,25.2133152 168.204367,24.7285081 C167.694331,24.2443827 167.011101,24.0019791 166.154676,24.0019791 C165.093692,24.0019791 164.185786,24.3896203 163.431301,25.1645618 L159.622053,24.4765583 C160.723608,22.1408241 163.115256,20.9727865 166.796995,20.9727865 C168.224482,20.9727865 169.407862,21.133707 170.346111,21.4545253 C171.2847,21.7760254 171.982932,22.1919641 172.441828,22.7020003 C172.901065,23.2116957 173.22427,23.7701445 173.413488,24.3770058 C173.602024,24.9835262 173.696462,25.9701872 173.696462,27.336989 L173.696462,32.7373729 L176.082996,32.7373729 Z" id="Fill-15"></path>
            <path d="M190.818441,28.622069 C190.818441,27.3575472 190.558309,26.4039567 190.038045,25.7612974 C189.518121,25.1186381 188.829777,24.7974789 187.973012,24.7974789 C187.156817,24.7974789 186.458245,25.113865 185.876953,25.7459554 C185.295662,26.3783867 185.005187,27.4083463 185.005187,28.8361751 C185.005187,30.0396697 185.277934,30.9833732 185.823768,31.6662626 C186.36892,32.349834 187.07022,32.6914492 187.926986,32.6914492 C188.753067,32.6914492 189.441411,32.359721 189.99236,31.6969466 C190.542967,31.0341723 190.818441,30.0089857 190.818441,28.622069 Z M185.051213,14.8688184 L185.051213,23.017466 C186.233911,21.6544145 187.63651,20.9728888 189.257989,20.9728888 C191.154942,20.9728888 192.697325,21.6919172 193.885818,23.1303149 C195.073289,24.5680307 195.667877,26.4090707 195.667877,28.652412 C195.667877,31.0495143 195.073289,32.9335118 193.885818,34.3054276 C192.697325,35.6770023 191.195513,36.3626193 189.380384,36.3626193 C187.748677,36.3626193 186.305507,35.7223465 185.051213,34.441119 L185.051213,36.1488541 L177.753876,36.1488541 L177.753876,32.7371342 L180.324172,32.7371342 L180.324172,18.2805383 L177.753876,18.2805383 L177.753876,14.8688184 L185.051213,14.8688184 Z" id="Fill-17"></path>
            <polygon id="Fill-19" points="197.25874 36.1487518 197.25874 32.7373729 199.584246 32.7373729 199.584246 18.280436 197.25874 18.280436 197.25874 14.8687162 204.311628 14.8687162 204.311628 32.7373729 206.437688 32.7373729 206.437688 36.1487518"></polygon>
            <path d="M219.34914,27.0921988 C219.2397,26.2661174 218.916155,25.562431 218.379866,24.9811396 C217.842896,24.3998483 217.110572,24.1090322 216.18221,24.1090322 C214.448564,24.1090322 213.439061,25.1035347 213.153699,27.0921988 L219.34914,27.0921988 Z M220.251931,31.6815024 L223.923442,32.859768 C222.383106,35.2766443 219.976457,36.484912 216.702815,36.484912 C214.091948,36.484912 212.05453,35.7965677 210.591245,34.4198789 C209.127618,33.0431901 208.395975,31.233175 208.395975,28.9891519 C208.395975,26.7045576 209.150119,24.7973766 210.660113,23.2679497 C212.169084,21.7378409 214.091948,20.9727865 216.427341,20.9727865 C218.120075,20.9727865 219.583702,21.4013397 220.817881,22.2581051 C222.051718,23.1148706 222.908484,24.1802873 223.387836,25.4553779 C223.867188,26.7301276 224.106864,28.1531833 224.106864,29.7235223 L213.076989,29.7235223 C213.148244,31.069868 213.57407,32.0234585 214.354467,32.5842938 C215.134522,33.1451292 215.957876,33.4257173 216.82521,33.4257173 C217.957109,33.4257173 219.099236,32.844426 220.251931,31.6815024 Z" id="Fill-21"></path>
            <path d="M226.983012,36.1487518 L226.983012,31.054526 L230.440417,31.054526 C230.47076,31.7483253 230.79226,32.3009782 231.404236,32.7141894 C232.016211,33.1274006 232.770696,33.3340062 233.668374,33.3340062 C234.442974,33.3340062 235.047449,33.1989966 235.481116,32.9282956 C235.914443,32.6582764 236.131276,32.3139337 236.131276,31.8956085 C236.131276,31.5083082 235.932171,31.2072641 235.534643,30.993158 C235.137115,30.7790518 234.356718,30.5744918 233.194476,30.3798189 C230.797715,29.990814 229.069183,29.4009993 228.008199,28.6107159 C226.947555,27.8207733 226.417063,26.7730852 226.417063,25.4683334 C226.417063,24.2454055 226.91653,23.2134003 227.916147,22.3723178 C228.915422,21.5312353 230.241653,21.1105236 231.893816,21.1105236 C233.229593,21.1105236 234.479113,21.3580412 235.641696,21.8527354 L235.641696,21.3403126 L239.022391,21.3403126 L239.022391,25.6388 L235.641696,25.6388 C235.335879,24.6088405 234.254779,24.0936902 232.398397,24.0936902 C231.031595,24.0936902 230.348706,24.4711034 230.348706,25.2255888 C230.348706,25.511291 230.488489,25.7284655 230.769418,25.8760896 C231.049665,26.0240547 231.765966,26.1996354 232.918661,26.4038544 C234.744359,26.7195587 236.110479,27.0359448 237.018726,27.35199 C237.925949,27.6680352 238.652819,28.1910269 239.198653,28.9199424 C239.744147,29.6495397 240.016893,30.5240337 240.016893,31.5437653 C240.016893,32.9920501 239.499357,34.1774753 238.464283,35.1007227 C237.428868,36.0236293 235.962855,36.484912 234.065902,36.484912 C232.301572,36.484912 231.092963,36.1255683 230.440417,35.4065399 L230.440417,36.1487518 L226.983012,36.1487518 Z" id="Fill-23"></path>
            <path d="M25.5701702,9.8632694 C16.9094408,9.8632694 9.86337168,16.9093385 9.86337168,25.5700679 C9.86337168,34.2307972 16.9094408,41.2768664 25.5701702,41.2768664 C27.4725781,41.2768664 29.3156637,40.9444564 31.0677201,40.2874778 C32.4270213,40.5019249 34.6696807,40.8571774 36.325253,41.1193552 L42.1910109,42.0487394 L41.2960609,36.1775266 C41.0379744,34.482747 40.661584,32.0089347 40.4508872,30.6080397 C40.9994489,28.9909929 41.2766277,27.3016683 41.2766277,25.5700679 C41.2766277,16.9093385 34.2308995,9.8632694 25.5701702,9.8632694 M25.5701702,14.2040326 C31.8470937,14.2040326 36.9355236,19.2928034 36.9355236,25.5700679 C36.9355236,27.1864328 36.5983406,28.7237012 35.9901155,30.1160729 C35.982615,30.1266418 37.0047331,36.8317776 37.0047331,36.8317776 C37.0047331,36.8317776 30.5338185,35.8065911 30.5143853,35.8065911 C29.0200745,36.5300516 27.3423416,36.9357623 25.5701702,36.9357623 C19.2929057,36.9357623 14.2044758,31.8469914 14.2044758,25.5700679 C14.2044758,19.2928034 19.2929057,14.2040326 25.5701702,14.2040326" id="Fill-25"></path>
            <path d="M22.4553351,1.12153428 C22.4553351,0.501717487 22.9571889,-0.000136373332 23.5770057,-0.000136373332 L27.5631982,-0.000136373332 C28.183015,-0.000136373332 28.6845279,0.501717487 28.6845279,1.12153428 L28.6845279,5.1080677 C28.6845279,5.72720262 28.183015,6.22939742 27.5631982,6.22939742 L23.5770057,6.22939742 C22.9571889,6.22939742 22.4553351,5.72720262 22.4553351,5.1080677 L22.4553351,1.12153428 Z" id="Fill-27"></path>
            <path d="M40.6553108,6.07986406 C41.0934101,5.6414238 41.8032333,5.64176473 42.2413327,6.07986406 L45.0601694,8.89870083 C45.4982688,9.33680016 45.4986097,10.0466233 45.0601694,10.4847227 L42.2409917,13.3035594 C41.8035743,13.7416588 41.0934101,13.7416588 40.6553108,13.3035594 L37.836474,10.4847227 C37.3983747,10.0466233 37.3983747,9.33645922 37.8361331,8.89904176 L40.6553108,6.07986406 Z" id="Fill-30"></path>
            <path d="M50.0184651,22.4553351 C50.6382819,22.4553351 51.1401358,22.9571889 51.1401358,23.5770057 L51.1401358,27.5631982 C51.1401358,28.183015 50.6382819,28.6845279 50.0184651,28.6845279 L46.0319317,28.6845279 C45.4127968,28.6845279 44.910602,28.183015 44.910602,27.5631982 L44.910602,23.5770057 C44.910602,22.9571889 45.4127968,22.4553351 46.0319317,22.4553351 L50.0184651,22.4553351 Z" id="Fill-32"></path>
            <path d="M28.6846643,50.0184651 C28.6846643,50.6382819 28.1828105,51.1401358 27.5629937,51.1401358 L23.5768012,51.1401358 C22.9569844,51.1401358 22.4554715,50.6382819 22.4554715,50.0184651 L22.4554715,46.0319317 C22.4554715,45.4127968 22.9569844,44.910602 23.5768012,44.910602 L27.5629937,44.910602 C28.1828105,44.910602 28.6846643,45.4127968 28.6846643,46.0319317 L28.6846643,50.0184651 Z" id="Fill-34"></path>
            <path d="M10.4846886,45.0601353 C10.0465893,45.4985756 9.33676606,45.4982347 8.89866673,45.0601353 L6.07982997,42.2412986 C5.64173064,41.8031992 5.64138971,41.093376 6.07982997,40.6552767 L8.89900767,37.8364399 C9.33642513,37.3983406 10.0465893,37.3983406 10.4846886,37.8364399 L13.3035253,40.6552767 C13.7416247,41.093376 13.7416247,41.8035402 13.3038663,42.2409576 L10.4846886,45.0601353 Z" id="Fill-37"></path>
            <path d="M1.12153428,28.6846643 C0.501717487,28.6846643 -0.000136373332,28.1828105 -0.000136373332,27.5629937 L-0.000136373332,23.5768012 C-0.000136373332,22.9569844 0.501717487,22.4554715 1.12153428,22.4554715 L5.1080677,22.4554715 C5.72720262,22.4554715 6.22939742,22.9569844 6.22939742,23.5768012 L6.22939742,27.5629937 C6.22939742,28.1828105 5.72720262,28.6846643 5.1080677,28.6846643 L1.12153428,28.6846643 Z" id="Fill-39"></path>
            <path d="M6.07986406,10.4846886 C5.6414238,10.0465893 5.64176473,9.33676606 6.07986406,8.89866673 L8.89870083,6.07982997 C9.33680016,5.64173064 10.0466233,5.64138971 10.4847227,6.07982997 L13.3035594,8.89900767 C13.7416588,9.33642513 13.7416588,10.0465893 13.3035594,10.4846886 L10.4847227,13.3035253 C10.0466233,13.7416247 9.33645922,13.7416247 8.89904176,13.3038663 L6.07986406,10.4846886 Z" id="Fill-42"></path>
        </g>
    </g>
</svg>